<svg width="281" height="55" viewBox="0 0 281 55" fill="none" xmlns="http://www.w3.org/2000/svg">
<path d="M79.4787 44.3615C77.4602 44.3615 75.6526 43.9699 74.0558 43.1866C72.4892 42.4033 71.2691 41.2133 70.3954 39.6165C69.5217 37.9897 69.0849 35.926 69.0849 33.4254V19.6876H76.1346V32.3861C76.1346 34.4046 76.5564 35.8959 77.3999 36.8599C78.2736 37.7939 79.4938 38.2608 81.0604 38.2608C82.1449 38.2608 83.109 38.0349 83.9525 37.583C84.7961 37.1009 85.4589 36.3779 85.9409 35.4138C86.4229 34.4196 86.664 33.1844 86.664 31.7082V19.6876H93.7137V44H87.0255V37.3118L88.2456 39.255C87.4322 40.9421 86.2271 42.2225 84.6304 43.0962C83.0638 43.9397 81.3466 44.3615 79.4787 44.3615ZM106.165 44.3615C104.086 44.3615 102.082 44.1205 100.154 43.6385C98.2564 43.1263 96.75 42.4937 95.6353 41.7405L97.9852 36.6792C99.0999 37.3721 100.41 37.9445 101.917 38.3964C103.453 38.8182 104.96 39.0291 106.436 39.0291C108.063 39.0291 109.207 38.8332 109.87 38.4416C110.563 38.0499 110.91 37.5076 110.91 36.8147C110.91 36.2423 110.639 35.8205 110.096 35.5494C109.584 35.2481 108.891 35.0222 108.017 34.8715C107.144 34.7209 106.18 34.5703 105.125 34.4196C104.101 34.269 103.062 34.0732 102.007 33.8322C100.953 33.561 99.9887 33.1694 99.115 32.6572C98.2413 32.1451 97.5333 31.4521 96.991 30.5785C96.4789 29.7048 96.2228 28.575 96.2228 27.1892C96.2228 25.6527 96.6596 24.297 97.5333 23.122C98.4371 21.9471 99.7326 21.0282 101.42 20.3654C103.107 19.6725 105.125 19.3261 107.475 19.3261C109.132 19.3261 110.819 19.5068 112.537 19.8683C114.254 20.2299 115.685 20.7571 116.83 21.45L114.48 26.4661C113.305 25.7732 112.115 25.3062 110.91 25.0652C109.735 24.7941 108.59 24.6585 107.475 24.6585C105.909 24.6585 104.764 24.8694 104.041 25.2912C103.318 25.713 102.956 26.2552 102.956 26.918C102.956 27.5206 103.212 27.9725 103.724 28.2737C104.267 28.575 104.975 28.816 105.848 28.9968C106.722 29.1776 107.671 29.3433 108.695 29.4939C109.75 29.6144 110.804 29.8102 111.859 30.0814C112.913 30.3525 113.862 30.7442 114.706 31.2563C115.579 31.7383 116.287 32.4162 116.83 33.2899C117.372 34.1334 117.643 35.2481 117.643 36.634C117.643 38.1403 117.191 39.481 116.287 40.6559C115.384 41.8007 114.073 42.7045 112.356 43.3673C110.669 44.0301 108.605 44.3615 106.165 44.3615ZM131.799 44.3615C129.027 44.3615 126.587 43.8192 124.478 42.7347C122.399 41.6501 120.788 40.1739 119.643 38.306C118.498 36.408 117.925 34.2539 117.925 31.8438C117.925 29.4035 118.483 27.2494 119.598 25.3816C120.742 23.4836 122.294 22.0073 124.252 20.9529C126.21 19.8683 128.425 19.3261 130.895 19.3261C133.275 19.3261 135.414 19.8382 137.312 20.8625C139.24 21.8567 140.762 23.3028 141.876 25.2008C142.991 27.0687 143.548 29.3131 143.548 31.9342C143.548 32.2053 143.533 32.5216 143.503 32.8832C143.473 33.2146 143.443 33.5309 143.413 33.8322H123.665V29.7198H139.707L136.996 30.94C136.996 29.6746 136.74 28.575 136.228 27.6411C135.715 26.7071 135.007 25.9841 134.104 25.4719C133.2 24.9297 132.145 24.6585 130.94 24.6585C129.735 24.6585 128.666 24.9297 127.732 25.4719C126.828 25.9841 126.12 26.7222 125.608 27.6863C125.096 28.6202 124.84 29.7349 124.84 31.0304V32.1149C124.84 33.4405 125.126 34.6155 125.698 35.6398C126.301 36.634 127.129 37.4022 128.184 37.9445C129.268 38.4566 130.534 38.7127 131.98 38.7127C133.275 38.7127 134.405 38.5169 135.369 38.1252C136.363 37.7336 137.267 37.1461 138.08 36.3628L141.831 40.43C140.716 41.6953 139.316 42.6744 137.628 43.3673C135.941 44.0301 133.998 44.3615 131.799 44.3615ZM177.119 19.3261C179.047 19.3261 180.749 19.7177 182.225 20.501C183.731 21.2542 184.906 22.4291 185.75 24.0258C186.624 25.5924 187.06 27.611 187.06 30.0814V44H180.011V31.1659C180.011 29.2077 179.604 27.7616 178.791 26.8277C177.977 25.8937 176.832 25.4268 175.356 25.4268C174.332 25.4268 173.413 25.6678 172.599 26.1498C171.786 26.6017 171.153 27.2946 170.701 28.2286C170.25 29.1625 170.024 30.3525 170.024 31.7986V44H162.974V31.1659C162.974 29.2077 162.567 27.7616 161.754 26.8277C160.97 25.8937 159.841 25.4268 158.365 25.4268C157.34 25.4268 156.421 25.6678 155.608 26.1498C154.794 26.6017 154.162 27.2946 153.71 28.2286C153.258 29.1625 153.032 30.3525 153.032 31.7986V44H145.982V19.6876H152.716V26.3306L151.45 24.3874C152.294 22.7304 153.484 21.4801 155.02 20.6366C156.587 19.7629 158.365 19.3261 160.353 19.3261C162.582 19.3261 164.525 19.8985 166.182 21.0433C167.87 22.158 168.984 23.8752 169.527 26.195L167.041 25.5171C167.854 23.6191 169.15 22.1128 170.927 20.9981C172.735 19.8834 174.799 19.3261 177.119 19.3261ZM206.033 44V39.255L205.581 38.2156V29.7198C205.581 28.2135 205.114 27.0385 204.18 26.195C203.276 25.3514 201.875 24.9297 199.977 24.9297C198.682 24.9297 197.401 25.1405 196.136 25.5623C194.901 25.954 193.846 26.4963 192.973 27.1892L190.442 22.2634C191.767 21.3295 193.364 20.6064 195.232 20.0943C197.1 19.5821 198.998 19.3261 200.926 19.3261C204.632 19.3261 207.509 20.1997 209.557 21.9471C211.606 23.6945 212.63 26.4209 212.63 30.1266V44H206.033ZM198.621 44.3615C196.723 44.3615 195.097 44.0452 193.741 43.4125C192.385 42.7497 191.346 41.861 190.623 40.7463C189.9 39.6316 189.538 38.3813 189.538 36.9955C189.538 35.5494 189.885 34.2841 190.577 33.1995C191.301 32.1149 192.43 31.2714 193.967 30.6688C195.503 30.0362 197.507 29.7198 199.977 29.7198H206.439V33.8322H200.745C199.088 33.8322 197.944 34.1033 197.311 34.6456C196.708 35.1879 196.407 35.8657 196.407 36.6792C196.407 37.583 196.754 38.306 197.446 38.8483C198.169 39.3605 199.149 39.6165 200.384 39.6165C201.559 39.6165 202.613 39.3454 203.547 38.8031C204.481 38.2307 205.159 37.4022 205.581 36.3176L206.665 39.5713C206.153 41.1379 205.219 42.328 203.863 43.1414C202.508 43.9548 200.76 44.3615 198.621 44.3615ZM226.693 44.3615C223.831 44.3615 221.602 43.6385 220.005 42.1924C218.408 40.7162 217.61 38.532 217.61 35.6398V14.3099H224.66V35.5494C224.66 36.5737 224.931 37.3721 225.473 37.9445C226.015 38.4868 226.753 38.7579 227.687 38.7579C228.802 38.7579 229.751 38.4566 230.534 37.8541L232.432 42.825C231.709 43.3372 230.836 43.7289 229.811 44C228.817 44.241 227.778 44.3615 226.693 44.3615ZM213.859 25.6527V20.2299H230.715V25.6527H213.859ZM245.446 44.3615C242.674 44.3615 240.234 43.8192 238.125 42.7347C236.046 41.6501 234.434 40.1739 233.289 38.306C232.145 36.408 231.572 34.2539 231.572 31.8438C231.572 29.4035 232.13 27.2494 233.244 25.3816C234.389 23.4836 235.941 22.0073 237.899 20.9529C239.857 19.8683 242.071 19.3261 244.542 19.3261C246.922 19.3261 249.061 19.8382 250.959 20.8625C252.887 21.8567 254.408 23.3028 255.523 25.2008C256.638 27.0687 257.195 29.3131 257.195 31.9342C257.195 32.2053 257.18 32.5216 257.15 32.8832C257.12 33.2146 257.09 33.5309 257.06 33.8322H237.311V29.7198H253.354L250.643 30.94C250.643 29.6746 250.386 28.575 249.874 27.6411C249.362 26.7071 248.654 25.9841 247.75 25.4719C246.847 24.9297 245.792 24.6585 244.587 24.6585C243.382 24.6585 242.312 24.9297 241.379 25.4719C240.475 25.9841 239.767 26.7222 239.255 27.6863C238.742 28.6202 238.486 29.7349 238.486 31.0304V32.1149C238.486 33.4405 238.773 34.6155 239.345 35.6398C239.948 36.634 240.776 37.4022 241.83 37.9445C242.915 38.4566 244.18 38.7127 245.626 38.7127C246.922 38.7127 248.052 38.5169 249.016 38.1252C250.01 37.7336 250.914 37.1461 251.727 36.3628L255.478 40.43C254.363 41.6953 252.962 42.6744 251.275 43.3673C249.588 44.0301 247.645 44.3615 245.446 44.3615ZM267.809 44.3615C265.73 44.3615 263.726 44.1205 261.798 43.6385C259.9 43.1263 258.394 42.4937 257.279 41.7405L259.629 36.6792C260.744 37.3721 262.054 37.9445 263.561 38.3964C265.097 38.8182 266.603 39.0291 268.08 39.0291C269.707 39.0291 270.851 38.8332 271.514 38.4416C272.207 38.0499 272.554 37.5076 272.554 36.8147C272.554 36.2423 272.282 35.8205 271.74 35.5494C271.228 35.2481 270.535 35.0222 269.661 34.8715C268.788 34.7209 267.824 34.5703 266.769 34.4196C265.745 34.269 264.705 34.0732 263.651 33.8322C262.597 33.561 261.633 33.1694 260.759 32.6572C259.885 32.1451 259.177 31.4521 258.635 30.5785C258.123 29.7048 257.867 28.575 257.867 27.1892C257.867 25.6527 258.304 24.297 259.177 23.122C260.081 21.9471 261.376 21.0282 263.064 20.3654C264.751 19.6725 266.769 19.3261 269.119 19.3261C270.776 19.3261 272.463 19.5068 274.18 19.8683C275.898 20.2299 277.329 20.7571 278.473 21.45L276.124 26.4661C274.949 25.7732 273.759 25.3062 272.554 25.0652C271.379 24.7941 270.234 24.6585 269.119 24.6585C267.552 24.6585 266.408 24.8694 265.685 25.2912C264.962 25.713 264.6 26.2552 264.6 26.918C264.6 27.5206 264.856 27.9725 265.368 28.2737C265.911 28.575 266.619 28.816 267.492 28.9968C268.366 29.1776 269.315 29.3433 270.339 29.4939C271.394 29.6144 272.448 29.8102 273.503 30.0814C274.557 30.3525 275.506 30.7442 276.35 31.2563C277.223 31.7383 277.931 32.4162 278.473 33.2899C279.016 34.1334 279.287 35.2481 279.287 36.634C279.287 38.1403 278.835 39.481 277.931 40.6559C277.027 41.8007 275.717 42.7045 274 43.3673C272.313 44.0301 270.249 44.3615 267.809 44.3615Z" fill="#BB4430"/>
<path d="M18.4085 19.3261C20.3366 19.3261 22.0539 19.7177 23.5602 20.501C25.0967 21.2542 26.3018 22.4291 27.1754 24.0258C28.0491 25.5924 28.486 27.611 28.486 30.0814V44H21.4363V31.1659C21.4363 29.2077 20.9994 27.7616 20.1257 26.8277C19.2822 25.8937 18.0771 25.4268 16.5105 25.4268C15.3958 25.4268 14.3866 25.6678 13.4828 26.1498C12.6091 26.6017 11.9162 27.3097 11.404 28.2737C10.922 29.2378 10.681 30.473 10.681 31.9794V44H3.63125V10.4687H10.681V26.4209L9.09929 24.3874C9.97297 22.7605 11.2232 21.5103 12.8501 20.6366C14.4769 19.7629 16.3297 19.3261 18.4085 19.3261Z" fill="#BB4430"/>
<path fill-rule="evenodd" clip-rule="evenodd" d="M38.3938 43.8781V28.4798H57.9608V43.7292C58.5807 43.8585 59.241 43.7019 59.7299 43.2085C61.5945 41.3271 62.9821 39.0118 63.7586 36.4557C64.755 33.1756 64.6947 29.6652 63.5861 26.4213C62.4775 23.1774 60.3767 20.3643 57.5812 18.3801C54.7857 16.3959 51.4369 15.3412 48.0089 15.3651C44.5809 15.3891 41.2472 16.4905 38.4796 18.5136C35.7121 20.5366 33.6509 23.3788 32.5877 26.6379C31.5245 29.897 31.5133 33.4079 32.5554 36.6737C33.3676 39.2187 34.7874 41.5144 36.6781 43.3696C37.1577 43.8403 37.7933 43.9935 38.3938 43.8781ZM48.2587 19.7129L57.9582 28.4774H38.3952L48.2587 19.7129ZM44.0114 30.04H47.2726V34.66H44.0114V30.04ZM47.2726 36.0188H44.0114V40.6388H47.2726V36.0188ZM48.9032 30.04H52.1643V34.66H48.9032V30.04ZM52.1643 36.0188H48.9032V40.6388H52.1643V36.0188Z" fill="#BB4430"/>
</svg>
