<svg width="33" height="34" viewBox="0 0 33 34" fill="none" xmlns="http://www.w3.org/2000/svg">
<g clip-path="url(#clip0_219_420)">
<path d="M16.5 3.06133C20.9086 3.06133 21.4307 3.08125 23.1645 3.16094C24.7758 3.23398 25.6459 3.51289 26.226 3.74531C26.993 4.05078 27.5473 4.42266 28.1209 5.01367C28.701 5.61133 29.0555 6.17578 29.352 6.96602C29.5775 7.56367 29.8482 8.4668 29.9191 10.1203C29.9965 11.9133 30.0158 12.4512 30.0158 16.9867C30.0158 21.5289 29.9965 22.0668 29.9191 23.8531C29.8482 25.5133 29.5775 26.4098 29.352 27.0074C29.0555 27.7977 28.6945 28.3687 28.1209 28.9598C27.5408 29.5574 26.993 29.9227 26.226 30.2281C25.6459 30.4605 24.7693 30.7395 23.1645 30.8125C21.4242 30.8922 20.9022 30.9121 16.5 30.9121C12.0914 30.9121 11.5693 30.8922 9.83555 30.8125C8.22422 30.7395 7.3541 30.4605 6.77402 30.2281C6.00703 29.9227 5.45273 29.5508 4.8791 28.9598C4.29902 28.3621 3.94453 27.7977 3.64805 27.0074C3.42246 26.4098 3.15176 25.5066 3.08086 23.8531C3.00352 22.0602 2.98418 21.5223 2.98418 16.9867C2.98418 12.4445 3.00352 11.9066 3.08086 10.1203C3.15176 8.46016 3.42246 7.56367 3.64805 6.96602C3.94453 6.17578 4.30547 5.60469 4.8791 5.01367C5.45918 4.41602 6.00703 4.05078 6.77402 3.74531C7.3541 3.51289 8.23067 3.23398 9.83555 3.16094C11.5693 3.08125 12.0914 3.06133 16.5 3.06133ZM16.5 0C12.0205 0 11.4598 0.0199219 9.7002 0.0996094C7.94707 0.179297 6.7418 0.471484 5.69766 0.889844C4.6084 1.32812 3.68672 1.90586 2.77148 2.85547C1.8498 3.79844 1.28906 4.74805 0.863672 5.86367C0.457617 6.94609 0.174023 8.18125 0.0966797 9.9875C0.0193359 11.807 0 12.3848 0 17C0 21.6152 0.0193359 22.193 0.0966797 24.0059C0.174023 25.8121 0.457617 27.0539 0.863672 28.1297C1.28906 29.252 1.8498 30.2016 2.77148 31.1445C3.68672 32.0875 4.6084 32.6719 5.69121 33.1035C6.7418 33.5219 7.94063 33.8141 9.69375 33.8937C11.4533 33.9734 12.0141 33.9934 16.4936 33.9934C20.973 33.9934 21.5338 33.9734 23.2934 33.8937C25.0465 33.8141 26.2518 33.5219 27.2959 33.1035C28.3787 32.6719 29.3004 32.0875 30.2156 31.1445C31.1309 30.2016 31.698 29.252 32.117 28.1363C32.523 27.0539 32.8066 25.8188 32.884 24.0125C32.9613 22.1996 32.9807 21.6219 32.9807 17.0066C32.9807 12.3914 32.9613 11.8137 32.884 10.0008C32.8066 8.19453 32.523 6.95273 32.117 5.87695C31.7109 4.74805 31.1502 3.79844 30.2285 2.85547C29.3133 1.9125 28.3916 1.32812 27.3088 0.896484C26.2582 0.478125 25.0594 0.185938 23.3063 0.10625C21.5402 0.0199219 20.9795 0 16.5 0Z" fill="white"/>
<path d="M16.5 8.26758C11.8207 8.26758 8.02441 12.1789 8.02441 17C8.02441 21.8211 11.8207 25.7324 16.5 25.7324C21.1793 25.7324 24.9756 21.8211 24.9756 17C24.9756 12.1789 21.1793 8.26758 16.5 8.26758ZM16.5 22.6645C13.4643 22.6645 11.0021 20.1277 11.0021 17C11.0021 13.8723 13.4643 11.3355 16.5 11.3355C19.5357 11.3355 21.9979 13.8723 21.9979 17C21.9979 20.1277 19.5357 22.6645 16.5 22.6645Z" fill="white"/>
<path d="M27.2895 7.92234C27.2895 9.05125 26.4 9.96102 25.3107 9.96102C24.215 9.96102 23.332 9.04461 23.332 7.92234C23.332 6.79343 24.2215 5.88367 25.3107 5.88367C26.4 5.88367 27.2895 6.80007 27.2895 7.92234Z" fill="white"/>
</g>
<defs>
<clipPath id="clip0_219_420">
<rect width="33" height="34" fill="white"/>
</clipPath>
</defs>
</svg>
