<svg width="69" height="108" viewBox="0 0 69 108" fill="none" xmlns="http://www.w3.org/2000/svg">
<path d="M0.661337 85.0359C2.36183 95.5703 6.88245 103.078 13.4002 106.191C19.918 109.305 27.9996 107.818 36.1737 102.001C44.3479 96.1841 52.071 86.4239 57.9373 74.4972C63.8035 62.5705 67.4228 49.2705 68.1362 37.0183C68.8496 24.7661 66.6097 14.3764 61.8242 7.74068C57.0388 1.10492 50.026 -1.33568 42.0626 0.863169C34.0991 3.06202 25.7145 9.7541 18.435 19.7212C11.1556 29.6882 5.46542 42.2675 2.40035 55.1691L6.51661 55.008C9.18357 43.7822 14.1347 32.8368 20.4686 24.1644C26.8025 15.4919 34.0981 9.66902 41.0272 7.75577C47.9563 5.84253 54.0582 7.96613 58.2221 13.74C62.3859 19.5138 64.3349 28.554 63.7142 39.2148C63.0934 49.8756 59.9443 61.4481 54.84 71.8257C49.7357 82.2032 43.0157 90.6957 35.9032 95.7572C28.7908 100.819 21.759 102.112 16.0877 99.4032C10.4165 96.6939 6.48309 90.1616 5.00347 80.9955L0.661337 85.0359Z" fill="url(#paint0_linear_344_489)"/>
<defs>
<linearGradient id="paint0_linear_344_489" x1="71.5894" y1="68.4017" x2="-6.94552" y2="34.5312" gradientUnits="userSpaceOnUse">
<stop stop-color="#D5AB79"/>
<stop offset="0.998451" stop-color="#6F593F"/>
</linearGradient>
</defs>
</svg>
