<svg width="34" height="33" viewBox="0 0 34 33" fill="none" xmlns="http://www.w3.org/2000/svg">
<g clip-path="url(#clip0_76_47)">
<rect width="34" height="33" fill="black"/>
<path d="M31.4832 0H2.51016C1.12227 0 0 1.06348 0 2.37832V30.6152C0 31.9301 1.12227 33 2.51016 33H31.4832C32.8711 33 34 31.9301 34 30.6217V2.37832C34 1.06348 32.8711 0 31.4832 0ZM10.0871 28.1209H5.04023V12.3686H10.0871V28.1209ZM7.56367 10.2223C5.94336 10.2223 4.63516 8.95254 4.63516 7.38633C4.63516 5.82012 5.94336 4.55039 7.56367 4.55039C9.17734 4.55039 10.4855 5.82012 10.4855 7.38633C10.4855 8.94609 9.17734 10.2223 7.56367 10.2223ZM28.973 28.1209H23.9328V20.4639C23.9328 18.6398 23.8996 16.2873 21.3098 16.2873C18.6867 16.2873 18.2883 18.2789 18.2883 20.335V28.1209H13.2547V12.3686H18.0891V14.5213H18.1555C18.8262 13.2838 20.473 11.9754 22.9234 11.9754C28.0301 11.9754 28.973 15.2367 28.973 19.4777V28.1209Z" fill="white"/>
</g>
<defs>
<clipPath id="clip0_76_47">
<rect width="34" height="33" fill="white"/>
</clipPath>
</defs>
</svg>
